<?xml version="1.0" encoding="UTF-8"?>
<svg version="1.1" xmlns="http://www.w3.org/2000/svg" width="2000" height="454">
<path d="M0 0 C42.24 0 84.48 0 128 0 C128.99 15.345 128.99 15.345 130 31 C126.87015625 31.27714844 123.7403125 31.55429687 120.515625 31.83984375 C117.48398062 32.11048471 114.45243578 32.38221575 111.42089844 32.65405273 C109.3142293 32.84236832 107.20745854 33.02955075 105.10058594 33.21557617 C102.07199098 33.48318294 99.043785 33.75486463 96.015625 34.02734375 C94.60292328 34.1508445 94.60292328 34.1508445 93.16168213 34.27684021 C92.28107117 34.35684769 91.40046021 34.43685516 90.49316406 34.51928711 C89.72039124 34.58812607 88.94761841 34.65696503 88.15142822 34.72789001 C86.03774194 34.99522645 84.05334646 35.43869584 82 36 C90.80378479 68.32457888 101.6274505 99.71137217 113.01953125 131.20703125 C118.21908165 145.58230858 123.36331048 159.97716181 128.5 174.375 C129.30768839 176.63826861 130.11538671 178.90153367 130.9230957 181.16479492 C132.47895384 185.52480412 134.03448118 189.88493118 135.58984375 194.24511719 C139.72323831 205.83126466 143.86192302 217.41552427 148 229 C154.73428632 209.75259197 161.19997746 190.4343234 167.375 171 C173.79567568 150.79256577 180.36501555 130.63776917 187 110.5 C194.02865435 89.16473932 200.98191996 67.8086422 207.79833984 46.40435791 C212.73896646 30.89102822 217.79557288 15.42740897 223 0 C230.26 0 237.52 0 245 0 C249.49893699 11.24734248 249.49893699 11.24734248 250.83666992 15.14697266 C251.1425705 16.03434616 251.44847107 16.92171967 251.76364136 17.83598328 C252.0826944 18.76924942 252.40174744 19.70251556 252.73046875 20.6640625 C253.07772003 21.67245682 253.42497131 22.68085114 253.78274536 23.71980286 C254.5295091 25.888384 255.27528976 28.05730388 256.02017212 30.22653198 C262.353628 48.66526509 268.77152543 67.07142733 275.3125 85.4375 C281.86787927 103.8556403 288.27525168 122.32272266 294.625 140.8125 C294.95884893 141.78461426 294.95884893 141.78461426 295.29944229 142.77636719 C295.96893789 144.7259037 296.63840122 146.6754513 297.30786133 148.625 C298.18694995 151.18491705 299.06610481 153.74481134 299.9453125 156.3046875 C300.16043425 156.93108879 300.37555599 157.55749008 300.59719658 158.20287323 C304.86438593 170.62621471 309.17045107 183.03576734 313.5 195.4375 C313.80174133 196.30243073 314.10348267 197.16736145 314.41436768 198.0585022 C317.90231626 208.05370393 321.42274717 218.03638187 325 228 C327.90848188 220.97163849 330.46036467 213.8766581 332.8359375 206.65234375 C333.1915274 205.58000992 333.54711731 204.50767609 333.91348267 203.40284729 C334.67436114 201.10784447 335.43396087 198.81241736 336.19238281 196.51660156 C338.21236956 190.40326429 340.24273446 184.29337822 342.2734375 178.18359375 C342.67971375 176.96082733 343.08598999 175.73806091 343.50457764 174.47824097 C346.67984436 164.93377029 349.91003585 155.4092217 353.17773438 145.89605713 C354.86263289 140.98631388 356.53674021 136.07287621 358.21221924 131.15991211 C359.87540203 126.28545694 361.54520232 121.41335715 363.22167969 116.54345703 C372.47775349 89.62678187 381.45880973 62.95919402 387 35 C385.93712769 34.93631226 385.93712769 34.93631226 384.8527832 34.87133789 C374.56806939 34.17397351 364.39883349 32.81725423 354.1875 31.4375 C352.41605954 31.20084295 350.6445754 30.96451256 348.87304688 30.72851562 C344.58151936 30.1561018 340.29060401 29.57929378 336 29 C333.64992004 19.59968016 336.84552715 9.62060712 338 0 C378.26 0 418.52 0 460 0 C460.59334652 7.71350472 461.14839764 15.12796508 461.0625 22.8125 C461.05798828 23.61236328 461.05347656 24.41222656 461.04882812 25.23632812 C461.03732358 27.15758658 461.01940601 29.07880511 461 31 C458.00114586 31.50787046 455.00121874 32.00646625 452 32.5 C451.16082031 32.64308594 450.32164062 32.78617188 449.45703125 32.93359375 C444.22817799 33.78480242 439.29724973 34.14714583 434 34 C433.9057373 34.66378662 433.81147461 35.32757324 433.71435547 36.01147461 C432.7993869 39.83927034 431.21653662 43.26148171 429.5703125 46.81640625 C428.85601742 48.38472628 428.14199893 49.9531723 427.42822266 51.52172852 C427.05272278 52.34246857 426.6772229 53.16320862 426.29034424 54.00881958 C412.42807012 84.3859535 401.14840205 115.49566614 389.9511261 146.93069458 C385.21508657 160.21827308 380.42646095 173.48675982 375.63541794 186.75457764 C373.78346317 191.88366888 371.93265759 197.01317503 370.08169365 202.1426239 C369.62430225 203.41013806 369.16689087 204.677645 368.7094593 205.94514465 C365.43096567 215.02961157 362.15683292 224.11563848 358.88671875 233.203125 C358.48023605 234.33269119 358.07375336 235.46225739 357.654953 236.62605286 C355.7641079 241.88094917 353.87380563 247.13604015 351.98413086 252.39135742 C347.35127402 265.27137262 342.6836312 278.13835057 338 291 C325.46 291 312.92 291 300 291 C296.68306605 283.03935853 293.55045297 275.17540551 290.734375 267.046875 C290.34387466 265.92951462 289.95337433 264.81215424 289.55104065 263.66093445 C288.715235 261.26829917 287.88101033 258.87511111 287.04824829 256.48141479 C285.72447869 252.67664686 284.39664836 248.87332132 283.06713867 245.07055664 C282.73077597 244.10842994 282.73077597 244.10842994 282.38761806 243.12686634 C281.93298344 241.82647844 281.47833094 240.52609679 281.02366066 239.22572136 C280.33850793 237.26570989 279.65379103 235.30554662 278.96916199 233.34535217 C274.78360794 221.36423868 270.55545652 209.3983938 266.3125 197.4375 C265.62050832 195.48584544 264.9285324 193.53418528 264.23657227 191.58251953 C262.85761541 187.69372118 261.47824497 183.80506982 260.09863281 179.91650391 C256.45793329 169.65396472 252.82292787 159.38940752 249.1875 149.125 C248.83419617 148.12757782 248.48089233 147.13015564 248.11688232 146.10250854 C241.73073777 128.07322195 235.35946753 110.03871272 229 92 C225.60443988 100.12231349 222.75465664 108.40833067 219.95703125 116.75 C219.47178264 118.18981565 218.98626678 119.62954125 218.50050354 121.06918335 C217.47042015 124.12361777 216.44201053 127.17860823 215.41497803 130.23406982 C213.79140382 135.06407917 212.16394118 139.89277233 210.53564453 144.72119141 C209.98675406 146.34890703 209.4378649 147.97662309 208.88897705 149.6043396 C208.61779305 150.40850689 208.34660904 151.21267418 208.06720734 152.04121017 C207.2460912 154.47657006 206.42533589 156.91205127 205.60467529 159.3475647 C201.2180089 172.36463699 196.8041058 185.37230585 192.375 198.375 C185.56087553 218.38824407 178.77667871 238.41155308 172 258.4375 C171.62787006 259.53713703 171.62787006 259.53713703 171.24822235 260.65898895 C169.60276859 265.52128517 167.95753734 270.38365663 166.3125 275.24609375 C165.89046295 276.49350845 165.4684259 277.74092316 165.03359985 279.02613831 C164.64739471 280.16792038 164.26118958 281.30970245 163.86328125 282.48608398 C163.52594971 283.48332993 163.18861816 284.48057587 162.84106445 285.50804138 C162.2236242 287.33743216 161.61056556 289.16830331 161 291 C148.46 291 135.92 291 123 291 C114.04838152 268.16082389 105.1749815 245.29679208 96.4375 222.375 C95.98808044 221.19601135 95.53866089 220.01702271 95.07562256 218.80230713 C93.28780809 214.11188933 91.50003593 209.42145541 89.71243286 204.73095703 C84.49431839 191.0433852 79.23237091 177.37278875 73.96559143 163.70388794 C71.33463353 156.87379111 68.71188394 150.0405557 66.08984375 143.20703125 C62.23423656 133.15926745 58.37049129 123.11467308 54.49739075 113.07363892 C52.67225969 108.34173603 50.8487641 103.60926567 49.03613281 98.87255859 C42.47622749 81.73545271 35.60579851 64.88358375 27.19799805 48.54321289 C26 46 26 46 25.20239258 43.42358398 C24.38325311 40.87597569 23.68858322 39.08289602 22 37 C18.05483846 35.23708288 14.07173473 34.6553696 9.8125 34.0625 C7.60961407 33.70572136 5.40771475 33.34277728 3.20703125 32.97265625 C2.2322583 32.83093994 1.25748535 32.68922363 0.25317383 32.54321289 C-0.49037354 32.36395264 -1.2339209 32.18469238 -2 32 C-6.77958622 22.44082756 -1.06344398 10.63443977 0 0 Z " fill="#292B34" transform="translate(1299,8)"/>
<path d="M0 0 C19.48100164 16.90924223 27.46155521 37.5849662 32.12890625 62.3359375 C32.28391602 63.15143066 32.43892578 63.96692383 32.59863281 64.80712891 C35.40481904 80.76081726 36.23402137 96.79378133 36.27693176 112.96378136 C36.28544643 116.07881714 36.30615106 119.19358955 36.32946777 122.30854797 C36.37707565 128.94263682 36.41029679 135.57675354 36.44140625 142.2109375 C36.53894061 187.94229169 36.53894061 187.94229169 39.74937439 233.53981018 C40.10483722 237.21162679 40.00083143 240.8390763 39.94140625 244.5234375 C41.23304688 244.49507813 42.5246875 244.46671875 43.85546875 244.4375 C50.93290696 244.43999469 57.95874753 245.07094074 65.00244141 245.6953125 C67.3316735 245.89977769 69.66177631 246.09075317 71.9921875 246.28125 C73.483144 246.41064185 74.97403237 246.54082171 76.46484375 246.671875 C77.15653656 246.72717377 77.84822937 246.78247253 78.56088257 246.83944702 C82.32885004 247.1877485 84.46580325 247.785636 87.94140625 249.5234375 C85.96140625 264.3734375 85.96140625 264.3734375 83.94140625 279.5234375 C81.75773437 279.54325684 79.5740625 279.56307617 77.32421875 279.58349609 C67.1964966 279.67755192 57.06892435 279.78460603 46.94140625 279.8984375 C46.03484032 279.90860271 45.12827438 279.91876793 44.19423676 279.92924118 C10.40469405 280.30901759 10.40469405 280.30901759 -23.34765625 281.86279297 C-32.94755964 282.47199323 -42.44099165 282.59865337 -52.05859375 282.5234375 C-53.04859375 272.9534375 -54.03859375 263.3834375 -55.05859375 253.5234375 C-50.00592798 252.2373044 -44.95270363 250.95408799 -39.89746094 249.67822266 C-38.17827952 249.2434014 -36.45952442 248.80689091 -34.74121094 248.36865234 C-32.26998513 247.73870403 -29.7972853 247.11486461 -27.32421875 246.4921875 C-26.55740784 246.29532349 -25.79059692 246.09845947 -25.00054932 245.89562988 C-21.54797843 245.0321252 -18.64208344 244.5234375 -15.05859375 244.5234375 C-14.5943637 242.09305663 -14.14902368 239.66069855 -13.71914673 237.22395325 C-13.2668685 234.69022351 -12.79285826 232.16030375 -12.30038452 229.63407898 C-9.74897889 215.86979387 -9.61957297 202.31947327 -9.66015625 188.35546875 C-9.65812835 185.86179011 -9.65521101 183.36811206 -9.65145874 180.87443542 C-9.64706495 175.67461441 -9.653368 170.47494921 -9.66748047 165.27514648 C-9.68452529 158.68082845 -9.6747416 152.08687817 -9.65676308 145.49257374 C-9.64580665 140.34888552 -9.64942603 135.20528125 -9.65714645 130.06159019 C-9.65911823 127.633643 -9.6567984 125.20568765 -9.64970779 122.77775002 C-9.58138502 92.80700611 -10.77750338 57.57811251 -31.16015625 33.4140625 C-43.30184595 21.3223386 -57.55544121 19.25110139 -73.90576172 19.27905273 C-90.46522064 19.46980693 -104.84312741 24.5756717 -116.890625 36.2890625 C-117.60605469 37.02640625 -118.32148437 37.76375 -119.05859375 38.5234375 C-119.68121094 39.13703125 -120.30382812 39.750625 -120.9453125 40.3828125 C-147.63869539 68.45585338 -146.41069813 109.96245573 -146.31933594 145.86914062 C-146.3081153 150.31431636 -146.31458871 154.75924767 -146.32624054 159.20441437 C-146.37127557 179.67007774 -145.93436151 200.04939342 -144.75738525 220.4833374 C-144.6672237 222.05040729 -144.57719214 223.61748467 -144.48730469 225.18457031 C-144.42392851 226.28655825 -144.42392851 226.28655825 -144.359272 227.41080856 C-144.04594801 233.12009682 -143.94694567 238.80733125 -144.05859375 244.5234375 C-142.10566406 244.47896484 -142.10566406 244.47896484 -140.11328125 244.43359375 C-133.1841072 244.43481497 -126.31632799 245.10065819 -119.42480469 245.75024414 C-117.16781757 245.9624206 -114.91018332 246.16625733 -112.65234375 246.36914062 C-100.6413774 247.47416947 -100.6413774 247.47416947 -97.05859375 248.5234375 C-98.59682463 277.06166838 -98.59682463 277.06166838 -101.05859375 279.5234375 C-103.3506837 279.63735336 -105.64630361 279.68035929 -107.94116211 279.69702148 C-109.02639915 279.70711573 -109.02639915 279.70711573 -110.13356018 279.7174139 C-111.71772959 279.73158969 -113.30192038 279.743507 -114.88612175 279.75349045 C-117.42516466 279.7697019 -119.96408696 279.79202047 -122.50306702 279.81607056 C-126.12174112 279.85001744 -129.7404238 279.88191033 -133.35913086 279.91213989 C-172.56794305 280.21647926 -172.56794305 280.21647926 -211.73803711 281.86303711 C-221.53046293 282.4488763 -231.2502575 282.62701427 -241.05859375 282.5234375 C-242.31933092 275.37518014 -243.22378604 268.2973703 -243.625 261.0546875 C-243.66790161 260.32540039 -243.71080322 259.59611328 -243.75500488 258.84472656 C-243.85894971 257.07112249 -243.95916856 255.29730068 -244.05859375 253.5234375 C-239.68466867 252.56195792 -235.31047215 251.60172526 -230.93603516 250.64257812 C-229.45223854 250.3170628 -227.96851273 249.99122449 -226.48486328 249.66503906 C-212.79322796 246.65527971 -212.79322796 246.65527971 -206.26953125 245.296875 C-205.53782715 245.14395996 -204.80612305 244.99104492 -204.05224609 244.83349609 C-202.05859375 244.5234375 -202.05859375 244.5234375 -198.05859375 244.5234375 C-198.02121094 243.94980469 -197.98382812 243.37617188 -197.9453125 242.78515625 C-197.39348318 235.65465585 -196.34539967 228.65022315 -195.1628418 221.60229492 C-193.47403156 211.38280045 -192.9043373 201.38620298 -192.8815918 191.02856445 C-192.8750206 189.71139938 -192.8684494 188.39423431 -192.86167908 187.03715515 C-192.84080446 182.69535503 -192.83027807 178.3535553 -192.8203125 174.01171875 C-192.81625587 172.49990511 -192.81213871 170.98809162 -192.80796242 169.47627831 C-192.78893083 162.35301215 -192.77470714 155.22975609 -192.76635045 148.10646945 C-192.75664773 139.97637243 -192.73050468 131.84655274 -192.68984956 123.71655303 C-192.65927631 117.37706396 -192.64484262 111.03765233 -192.64156944 104.69809121 C-192.63926117 100.93955012 -192.63087767 97.18130547 -192.60510826 93.42284584 C-192.47951264 74.1351895 -193.7180026 55.59852512 -196.69816303 36.52183819 C-197.0623913 33.49184589 -197.12131405 30.57208387 -197.05859375 27.5234375 C-197.87714844 27.43707031 -198.69570313 27.35070313 -199.5390625 27.26171875 C-209.24575167 26.14683032 -218.86724874 24.6087307 -228.49609375 22.9609375 C-229.15709076 22.84916168 -229.81808777 22.73738586 -230.49911499 22.6222229 C-232.39342089 22.30090074 -234.28658207 21.97285213 -236.1796875 21.64453125 C-237.28755615 21.4530249 -238.3954248 21.26151855 -239.53686523 21.06420898 C-242.05859375 20.5234375 -242.05859375 20.5234375 -243.05859375 19.5234375 C-243.01668154 17.65135866 -242.90056267 15.78085861 -242.75390625 13.9140625 C-242.66496094 12.76679687 -242.57601562 11.61953125 -242.484375 10.4375 C-242.38511719 9.22835938 -242.28585937 8.01921875 -242.18359375 6.7734375 C-242.09207031 5.57976563 -242.00054688 4.38609375 -241.90625 3.15625 C-241.5124327 -1.80251992 -241.06931303 -6.60356406 -240.05859375 -11.4765625 C-230.45292472 -11.70907252 -220.8482353 -11.8863454 -211.24035835 -11.99468422 C-206.77803744 -12.04670426 -202.31765218 -12.11715858 -197.85644531 -12.23095703 C-193.54444491 -12.34025113 -189.23429605 -12.39953269 -184.92101669 -12.42533493 C-183.28224424 -12.44370136 -181.64356435 -12.47957042 -180.00558853 -12.53386307 C-167.25469694 -12.93939157 -167.25469694 -12.93939157 -161.80596924 -9.3099823 C-157.21300822 -4.8501879 -153.86811497 -1.17055474 -153.55859375 5.4609375 C-153.46835937 6.7190625 -153.378125 7.9771875 -153.28515625 9.2734375 C-153.2372998 10.28277344 -153.2372998 10.28277344 -153.18847656 11.3125 C-152.99108259 14.67265 -152.59810247 18.00737384 -152.22460938 21.35180664 C-151.80954717 25.07309004 -151.43553647 28.79812062 -151.05859375 32.5234375 C-150.52492188 31.71261719 -149.99125 30.90179688 -149.44140625 30.06640625 C-133.07506935 5.57274599 -112.38954299 -8.35224439 -83.97265625 -15.22265625 C-57.73815608 -20.21478555 -21.45316588 -17.37076267 0 0 Z " fill="#292B34" transform="translate(891.05859375,19.4765625)"/>
<path d="M0 0 C1.60012921 1.50315168 3.1843684 3.02344959 4.75 4.5625 C5.78060547 5.57376953 5.78060547 5.57376953 6.83203125 6.60546875 C16.75561379 17.03795296 23.10399 30.06922796 27.75 43.5625 C27.97139648 44.19285156 28.19279297 44.82320313 28.42089844 45.47265625 C34.2311697 62.36595595 37.04030008 80.7490321 37.75 98.5625 C37.87117188 99.70847656 37.99234375 100.85445313 38.1171875 102.03515625 C39.01560993 114.98060668 35.41229847 118.23790305 28.75 131.5625 C-30.32 131.5625 -89.39 131.5625 -150.25 131.5625 C-144.96953728 168.52573905 -137.89718668 206.44096186 -106.5234375 230.66796875 C-87.66550265 243.41201983 -62.67526326 242.84341852 -40.98730469 239.04077148 C-21.28128573 235.15142564 -1.07263551 228.20787819 16.5703125 218.59375 C18.75 217.5625 18.75 217.5625 21.75 217.5625 C23.4675293 219.82568359 23.4675293 219.82568359 25.32421875 222.9609375 C26.32485352 224.63929688 26.32485352 224.63929688 27.34570312 226.3515625 C27.68867432 226.93969727 28.03164551 227.52783203 28.38500977 228.13378906 C29.43300916 229.9298038 30.49710795 231.71542842 31.56445312 233.5 C36.75 242.26856323 36.75 242.26856323 36.75 244.5625 C15.37298369 262.43396058 -11.85773915 273.41087572 -39.25 277.5625 C-39.88897217 277.66272461 -40.52794434 277.76294922 -41.1862793 277.86621094 C-49.09242203 278.92753955 -57.09979912 278.80631298 -65.0625 278.8125 C-65.84178864 278.81317474 -66.62107727 278.81384949 -67.42398071 278.81454468 C-104.03956521 278.76422464 -135.18325859 268.35383035 -162.25 242.9375 C-193.10329743 210.88785022 -202.09114203 164.75558095 -201.43359375 121.75390625 C-200.35899794 78.77674842 -189.34626111 37.4705311 -158.81640625 6.05859375 C-119.03230048 -31.5043961 -41.72841599 -36.56021768 0 0 Z M-123.25 26.5625 C-139.80696892 46.66369509 -149.25 77.74343358 -149.25 103.5625 C-137.53703811 102.70241679 -125.82413188 101.84157939 -114.11128902 100.97987652 C-108.66772378 100.57942026 -103.2241423 100.17918792 -97.78051758 99.77954102 C-85.27294616 98.86115635 -72.76570592 97.93845454 -60.25897217 97.00872803 C-56.27392224 96.71250174 -52.28877083 96.4177015 -48.30352783 96.12408447 C-43.66653382 95.78219647 -39.02984638 95.43641579 -34.39337349 95.08753395 C-32.69047402 94.95999481 -30.98747561 94.8337692 -29.28437614 94.70892906 C-26.96216616 94.53846306 -24.64036309 94.3632471 -22.31860352 94.18676758 C-21.01826675 94.0897908 -19.71792999 93.99281403 -18.37818909 93.89289856 C-15.22323039 93.67292852 -15.22323039 93.67292852 -12.25 92.5625 C-6.62830036 81.31910072 -13.03525421 58.9971688 -16.77734375 47.5703125 C-21.82507172 33.27012304 -30.76507018 19.97243991 -44.25 12.5625 C-71.17125685 -0.29797302 -103.13513489 3.99158071 -123.25 26.5625 Z " fill="#292B34" transform="translate(1219.25,26.4375)"/>
<path d="M0 0 C0.98871094 0.73347656 1.97742188 1.46695313 2.99609375 2.22265625 C3.83503174 2.84164795 3.83503174 2.84164795 4.69091797 3.47314453 C21.99852779 16.34045722 36.71902607 32.12326563 46.99609375 51.22265625 C43.33545674 52.78281704 39.72808264 53.82323252 35.87109375 54.78515625 C16.14586814 60.38844361 -0.28061479 71.14512319 -15.00390625 85.22265625 C-15.67679688 85.83238281 -16.3496875 86.44210937 -17.04296875 87.0703125 C-35.60648345 104.4874747 -47.94518003 131.11726705 -51.00390625 156.22265625 C-51.11347656 157.11984375 -51.22304687 158.01703125 -51.3359375 158.94140625 C-53.39274927 178.46740595 -51.42331465 199.97605758 -43.34375 218.08984375 C-42.00390625 221.22265625 -42.00390625 221.22265625 -42.00390625 224.22265625 C-81.10349793 225.06802939 -132.30070263 224.34005213 -163.8203125 197.375 C-173.35264203 187.97909021 -177.47551437 176.26210194 -178.171875 163.03125 C-178.45743243 113.74403842 -163.3496304 61.71710164 -128.94140625 25.28125 C-127.23365739 23.46676683 -125.68186105 21.60576155 -124.12890625 19.66015625 C-120.45375794 15.3641382 -116.07869038 11.93240071 -111.62255859 8.47900391 C-110.51349225 7.61818107 -109.40988897 6.75028658 -108.31103516 5.87646484 C-75.4026757 -20.20686371 -35.10961349 -24.72440896 0 0 Z " fill="#292B34" transform="translate(286.00390625,185.77734375)"/>
<path d="M0 0 C1.66665638 0.33338474 3.33332161 0.66672528 5 1 C5.02323754 10.62334511 5.04097305 20.24668046 5.05181217 29.87004757 C5.05701612 34.33923781 5.06406828 38.80840875 5.07543945 43.27758789 C5.08635713 47.59587861 5.09229556 51.91415084 5.09487724 56.2324543 C5.09671555 57.87455091 5.10030514 59.51664659 5.10573006 61.15873528 C5.131111 69.16455883 5.14728077 77.05637084 4 85 C-7.37981825 85.12818318 -18.64732258 84.79568202 -30 84 C-30.00410889 83.35675781 -30.00821777 82.71351562 -30.01245117 82.05078125 C-30.16488415 68.37327526 -31.15168602 56.80946591 -36 44 C-36.38654104 42.68824164 -36.76150191 41.37301717 -37.125 40.0546875 C-38.89474651 33.45613774 -38.89474651 33.45613774 -43.0703125 28.3125 C-45.37487762 27.25005642 -47.53214106 26.57540752 -50 26 C-51.175625 25.608125 -52.35125 25.21625 -53.5625 24.8125 C-71.345241 20.60930667 -92.47340109 20.82763239 -108.45703125 30.21484375 C-116.2094882 35.65704471 -121.1897928 42.66611912 -123 52 C-124.28433636 63.67656691 -123.06804884 73.25655584 -116.375 83.125 C-101.92126791 100.86527753 -76.00395369 110.19559724 -56 120 C-38.29562712 128.68604046 -21.38452457 137.52499532 -6 150 C-5.04222656 150.77214844 -4.08445312 151.54429687 -3.09765625 152.33984375 C10.54956896 163.96837309 20.28926241 179.94221438 22 198 C23.53711273 223.1793705 20.6003993 248.14866014 3.9375 268.1875 C-12.80024921 285.8614284 -39.55371469 293.28333976 -63.23828125 294.20654297 C-67.82572603 294.32782291 -72.41127725 294.33391494 -77 294.3125 C-78.21639664 294.30976578 -78.21639664 294.30976578 -79.45736694 294.30697632 C-112.10196379 294.18369521 -138.85540705 285.57229648 -168 271 C-168 245.26 -168 219.52 -168 193 C-143 191 -143 191 -134 191 C-134.00112793 191.71317383 -134.00225586 192.42634766 -134.00341797 193.16113281 C-133.94480013 209.03892034 -132.86967798 223.16801801 -127 238 C-126.53335937 239.20398438 -126.06671875 240.40796875 -125.5859375 241.6484375 C-121.86853963 250.05930977 -117.08784358 254.75076419 -108.6953125 258.4609375 C-90.21023826 265.45856954 -68.31521488 267.28501743 -49.6875 259.640625 C-38.93306333 254.5269958 -32.30485815 248.61491114 -27.95703125 237.28125 C-24.44563607 225.27986179 -24.00539964 211.2259131 -30 200 C-35.87613481 190.21223698 -44.84163093 184.13931167 -54.5625 178.5625 C-56.02538452 177.71292725 -56.02538452 177.71292725 -57.51782227 176.84619141 C-68.86695879 170.28899577 -80.3388538 164.28632155 -92.1875 158.6875 C-108.30995225 151.04741235 -123.86304534 142.94869475 -138 132 C-139.04671875 131.21109375 -140.0934375 130.4221875 -141.171875 129.609375 C-156.07718018 117.88185062 -167.37393243 101.28928706 -169.80517578 82.11279297 C-171.79515285 60.5322647 -169.19743002 39.23589515 -155 22 C-137.81849503 2.36792782 -113.93212167 -6.6410338 -88.4375 -8.8125 C-58.65738888 -10.02862008 -29.11485685 -5.83817779 0 0 Z " fill="#292B34" transform="translate(1976,11)"/>
<path d="M0 0 C19.06440784 19.72464707 26.06102079 43.83296113 25.84545898 70.75146484 C25.61669351 79.71785119 24.67764021 87.4673938 21.375 95.875 C21.12830566 96.5232373 20.88161133 97.17147461 20.62744141 97.83935547 C11.18416535 122.33158465 -5.92043863 141.15761126 -29.70703125 152.1875 C-53.07384848 162.50931909 -79.90574141 162.71200168 -103.66723633 153.54907227 C-128.29306755 143.30528595 -145.85317756 123.96084533 -156.4375 99.75 C-165.60332922 76.634828 -164.75717493 51.72070662 -155.40625 28.85546875 C-145.0438835 4.97418154 -125.8742415 -12.43489912 -101.96044922 -22.23388672 C-66.57091362 -35.73710697 -26.97319273 -25.4286384 0 0 Z M-110.15234375 40.90234375 C-114.56291576 46.8104044 -116.38612674 52.599863 -116.06640625 59.984375 C-113.08222012 79.52683284 -93.96518177 95.17018329 -79.2109375 106.80078125 C-74.84711532 110.30106762 -70.7455617 114.09409415 -66.625 117.875 C-63.13990069 116.33055924 -60.48177663 114.25024647 -57.5625 111.8125 C-51.84765625 107.05013021 -51.84765625 107.05013021 -48.953125 104.7734375 C-35.18416857 93.89677665 -16.59528938 78.47711055 -14.38671875 59.8671875 C-14.106662 51.87820009 -16.35412453 44.94074353 -21.8125 39 C-28.94214002 32.63747315 -35.77086199 31.19817598 -45.24609375 31.484375 C-52.12627599 32.27977179 -57.57676449 35.14227921 -62.625 39.875 C-62.955 40.535 -63.285 41.195 -63.625 41.875 C-66.63564601 40.45822541 -69.27870541 38.78468041 -72 36.875 C-84.20526349 28.76453317 -100.06497486 29.67030889 -110.15234375 40.90234375 Z " fill="#292B34" transform="translate(425.625,293.125)"/>
<path d="M0 0 C-1.1821539 3.54646169 -2.10136151 4.02720364 -5.0625 6.1875 C-18.0058528 16.31224302 -28.92570265 28.33685366 -38 42 C-38.40879395 42.60714844 -38.81758789 43.21429688 -39.23876953 43.83984375 C-59.46170882 74.12223483 -73.39833257 108.97371557 -79 145 C-79.17950195 146.1338916 -79.35900391 147.2677832 -79.54394531 148.43603516 C-81.1208063 159.48657685 -81.23466694 170.35328685 -81.125 181.5 C-81.11493609 183.30598454 -81.10581635 185.1119746 -81.09765625 186.91796875 C-81.07594514 191.27878587 -81.04160945 195.63932923 -81 200 C-88.2177896 199.50608262 -95.24165917 198.79486396 -102.3125 197.25 C-103.12082275 197.0751709 -103.92914551 196.9003418 -104.76196289 196.72021484 C-123.60515259 192.49491844 -143.67962553 185.72782364 -154.52734375 168.6484375 C-167.08255684 146.06903572 -159.40296339 112.31040685 -152.77294922 88.59277344 C-144.77900591 61.77796675 -131.38309989 38.08234592 -112 18 C-111.19949219 17.13632813 -110.39898437 16.27265625 -109.57421875 15.3828125 C-78.70486678 -17.05274227 -37.84658738 -23.22897619 0 0 Z " fill="#292B34" transform="translate(162,164)"/>
<path d="M0 0 C13.7708527 10.67859536 24.18300685 25.05350701 27.5625 42.39453125 C30.01217028 62.58243902 26.53559191 81.30651917 13.8125 97.6875 C0.98525144 112.52100707 -15.13186762 120.81655735 -34.71875 122.27734375 C-53.44647311 122.76101428 -70.42963799 116.8409781 -84.5390625 104.46875 C-97.77189672 91.19390679 -105.13246632 74.41106029 -105.4375 55.6875 C-105.30165439 36.84104405 -98.01367944 20.34306051 -84.91015625 6.84765625 C-61.92563526 -14.8068382 -26.17243811 -17.64360878 0 0 Z " fill="#292B34" transform="translate(274,14)"/>
<path d="M0 0 C5.41257219 2.65322166 7.46617542 5.74466012 10 11 C11.23471135 14.67235793 11.12884278 18.23379493 11.13422108 22.08602333 C11.13657331 22.80351319 11.13892554 23.52100304 11.14134905 24.26023501 C11.14803359 26.67697396 11.14758099 29.09365908 11.14717102 31.51040649 C11.15046998 33.25564798 11.15419562 35.0008887 11.1583125 36.74612844 C11.1683369 41.55205335 11.17205 46.35796577 11.17470181 51.16389966 C11.17860354 56.34335184 11.18818195 61.52279412 11.19691467 66.70223999 C11.21668248 79.21537381 11.22674556 91.72850845 11.23564246 104.24165398 C11.24002472 110.13286807 11.24539168 116.02408127 11.25063133 121.91529465 C11.26764369 141.49639766 11.28213829 161.07750012 11.28938007 180.65860939 C11.29129 185.74066799 11.29321033 190.82272658 11.29516602 195.90478516 C11.29564976 197.16792071 11.2961335 198.43105626 11.2966319 199.73246865 C11.30493378 220.19850943 11.33027336 240.6644918 11.36274669 261.13050707 C11.39580712 282.13761369 11.41382791 303.14469062 11.41702431 324.1518234 C11.41919032 335.94854884 11.42795225 347.74518909 11.45348549 359.54188919 C11.47517855 369.58763133 11.48324973 379.63326758 11.47351871 389.67903049 C11.46897004 394.80430433 11.47089335 399.92935963 11.49028015 405.05460358 C11.50788383 409.74899823 11.50693673 414.44301444 11.49138286 419.13741295 C11.48900255 420.8332924 11.49335225 422.52919787 11.50521151 424.22503753 C11.6179403 441.41320707 11.6179403 441.41320707 7 449 C3.73850079 452.18384446 1.32500002 453.81813725 -3.1875 454.4375 C-7.5866207 453.93268287 -9.17040416 452.79934781 -12.421875 449.99609375 C-16.48418579 444.85787392 -17.37520319 439.9022703 -17.38031673 433.47677708 C-17.38497665 432.748473 -17.38963657 432.02016893 -17.3944377 431.26979503 C-17.40636972 428.83418369 -17.39699945 426.39913204 -17.38768005 423.96351624 C-17.39185376 422.19775839 -17.39733147 420.43200322 -17.40399987 418.66625303 C-17.41846833 413.81758635 -17.41420536 408.96908945 -17.40683305 404.12041342 C-17.40210718 398.88991611 -17.41460607 393.65945583 -17.42485046 388.42897034 C-17.44205498 378.18354377 -17.44287507 367.93817849 -17.43763756 357.69274122 C-17.43359783 349.36631067 -17.43503707 341.03989824 -17.44038582 332.71346855 C-17.44113424 331.52887215 -17.44188266 330.34427576 -17.44265376 329.1237825 C-17.44418522 326.71736308 -17.44572357 324.31094367 -17.44726873 321.90452426 C-17.46099967 299.33289323 -17.45555183 276.76129686 -17.44408352 254.18966662 C-17.43414972 233.53492968 -17.44709332 212.88028231 -17.47101771 192.22555918 C-17.49539327 171.02173693 -17.50502043 149.81795641 -17.49836498 128.61412042 C-17.49486944 116.70796666 -17.49712702 104.80188179 -17.51461601 92.8957386 C-17.52931864 82.76070181 -17.52999876 72.62578244 -17.5125451 62.490748 C-17.50401693 57.31912921 -17.50192994 52.14772035 -17.51719666 46.97611237 C-17.53099944 42.24183661 -17.52633745 37.50795152 -17.50695742 32.77369862 C-17.50318355 31.0611266 -17.50615917 29.34852361 -17.51656907 27.63597906 C-17.61388682 10.40042903 -17.61388682 10.40042903 -11.65894026 3.43032604 C-7.95106252 -0.17394812 -5.0074662 -0.80477135 0 0 Z " fill="#292B34" transform="translate(565,0)"/>
<path d="M0 0 C37.57242494 29.70842902 55.78694702 73.39455105 61.38623047 120.05175781 C61.80297297 123.9913236 62.01582122 127.9160825 62.125 131.875 C62.14546387 132.52887695 62.16592773 133.18275391 62.18701172 133.85644531 C62.53772144 146.25591784 62.53772144 146.25591784 60.125 149.875 C59.65191406 148.74964844 59.17882812 147.62429688 58.69140625 146.46484375 C44.81486551 114.00085459 22.39434046 88.45689333 -10.875 74.875 C-19.02930183 71.83536108 -27.37268582 69.02885369 -36.08984375 68.40234375 C-48.23732043 67.50356553 -48.23732043 67.50356553 -51.27880859 64.47900391 C-53.80608511 60.68646422 -55.25372068 56.44354555 -56.86279297 52.20556641 C-58.693756 47.9898469 -61.28451575 44.28050284 -63.875 40.5 C-64.39416992 39.7361499 -64.91333984 38.9722998 -65.44824219 38.18530273 C-75.1296339 24.103697 -86.85796175 8.85051234 -100.875 -1.125 C-99.63395341 -5.20933988 -97.00937473 -6.50311597 -93.46606445 -8.42382812 C-92.73476318 -8.79958984 -92.00346191 -9.17535156 -91.25 -9.5625 C-90.4974292 -9.95501953 -89.7448584 -10.34753906 -88.96948242 -10.75195312 C-57.48928109 -26.64474278 -27.46165407 -20.29774431 0 0 Z " fill="#292B34" transform="translate(414.875,170.125)"/>
<path d="M0 0 C12.84078603 9.82568434 21.41354068 23.0950024 24.265625 39.1015625 C26.01056957 58.60184719 22.81631441 75.04909028 10.578125 90.7890625 C1.15499806 101.0392192 -12.25482957 109.1125857 -26.3046875 110.32299805 C-43.68218601 111.04654624 -57.29104762 109.59508198 -71.734375 99.1015625 C-71.55261719 98.53050781 -71.37085938 97.95945312 -71.18359375 97.37109375 C-60.84833234 64.03325053 -64.83674235 37.9533975 -79.734375 7.1015625 C-58.49191908 -14.03360829 -24.73426276 -17.17264529 0 0 Z " fill="#292B34" transform="translate(397.734375,11.8984375)"/>
<path d="M0 0 C2.07326232 1.5992074 4.02910049 3.27249471 6 5 C4.64413461 8.63427837 2.97915015 12.03289238 1.18212891 15.46801758 C-2.79604686 23.11475128 -5.90602925 30.60207522 -8 39 C-8.22429687 39.81726562 -8.44859375 40.63453125 -8.6796875 41.4765625 C-12.68320972 58.75203508 -11.03811767 79.85352952 -4.30078125 96.2578125 C-2.45726656 101.56137728 -2.45726656 101.56137728 -4 105 C-14.7391063 113.10143107 -30.37342121 113.90195214 -43.1875 112.3125 C-59.21197408 109.60892951 -73.00754031 102.13401038 -82.5625 88.875 C-83.04066162 88.21556396 -83.51882324 87.55612793 -84.01147461 86.87670898 C-94.88862351 71.51909094 -97.42767761 54.52245469 -94.34765625 36.09765625 C-89.81618942 20.05276296 -79.32255606 6.44663563 -65 -2 C-43.83192845 -13.5777679 -20.43741936 -12.39397956 0 0 Z " fill="#292B34" transform="translate(150,11)"/>
<path d="M0 0 C4.30495015 -0.09935088 8.60928183 -0.17169268 12.91503906 -0.21972656 C14.37772252 -0.23976332 15.84032666 -0.26700104 17.30273438 -0.30175781 C19.4129601 -0.35063225 21.52212136 -0.37304659 23.6328125 -0.390625 C24.90012207 -0.41157227 26.16743164 -0.43251953 27.47314453 -0.45410156 C32.37774713 0.17739233 35.36553577 2.36553577 38.8125 5.8125 C40.77530246 9.42818875 41.53450455 12.9236554 40.4921875 16.97265625 C39.75 18.875 39.75 18.875 38 22 C37.01 22.33 36.02 22.66 35 23 C35 23.66 35 24.32 35 25 C35.598125 25.2475 36.19625 25.495 36.8125 25.75 C39.50438922 27.28822241 40.52013443 28.25167822 42 31 C43.53790009 37.0576828 43.23844737 41.49463948 40 47 C35.12209272 51.63401191 31.19437372 52.14657392 24.70703125 52.09765625 C23.64798836 52.09553383 23.64798836 52.09553383 22.56755066 52.09336853 C20.31582374 52.08777764 18.06419679 52.07522688 15.8125 52.0625 C14.28450665 52.05748382 12.75651173 52.05292112 11.22851562 52.04882812 C7.48563865 52.0378112 3.74283627 52.02055287 0 52 C0 50.35 0 48.7 0 47 C2.97 46.505 2.97 46.505 6 46 C6 32.8 6 19.6 6 6 C3.03 5.505 3.03 5.505 0 5 C0 3.35 0 1.7 0 0 Z M14 6 C14 11.28 14 16.56 14 22 C16.5678125 22.061875 16.5678125 22.061875 19.1875 22.125 C20.63189453 22.15980469 20.63189453 22.15980469 22.10546875 22.1953125 C26.27387844 21.91404329 29.03688631 20.96311369 32 18 C32.59099748 12.72744106 32.59099748 12.72744106 30.6875 8.0625 C25.65999981 4.89703691 19.70325271 5.9386747 14 6 Z M14 28 C14 33.94 14 39.88 14 46 C17.3103125 46.0928125 17.3103125 46.0928125 20.6875 46.1875 C21.92886719 46.22230469 23.17023437 46.25710938 24.44921875 46.29296875 C28.2423504 45.98000409 30.04556183 45.35381063 33 43 C34.5402467 39.38376861 35.25271313 37.11193778 34.375 33.25 C32.76242485 30.61124066 31.69331079 29.53966138 29 28 C26.30796435 27.78520992 23.92275886 27.71473724 21.25 27.8125 C17.66125 27.9053125 17.66125 27.9053125 14 28 Z " fill="#292B34" transform="translate(647,385)"/>
<path d="M0 0 C4.62 0 9.24 0 14 0 C14 2.97 14 5.94 14 9 C15.98 9 17.96 9 20 9 C20 10.98 20 12.96 20 15 C18.02 15 16.04 15 14 15 C14 26.55 14 38.1 14 50 C16.97 50.495 16.97 50.495 20 51 C20 52.65 20 54.3 20 56 C15.71 56 11.42 56 7 56 C6.67 55.34 6.34 54.68 6 54 C5.195625 54.495 4.39125 54.99 3.5625 55.5 C-0.82101219 57.34568934 -4.30889255 57.76503724 -9 57 C-14.49938377 54.14846767 -17.15530341 51.32291563 -19.25 45.5625 C-20.79189611 38.65636028 -20.11504942 31.12213838 -17.75 24.5 C-15.01473967 20.59248524 -12.59475078 17.53158359 -8 16 C-2.5704369 15.64970561 0.50002981 15.62502236 5 19 C5.33 17.68 5.66 16.36 6 15 C3.03 15 0.06 15 -3 15 C-3 13.02 -3 11.04 -3 9 C-0.03 9 2.94 9 6 9 C6 8.01 6 7.02 6 6 C5.195625 6.020625 4.39125 6.04125 3.5625 6.0625 C1 6 1 6 0 5 C0 3.35 0 1.7 0 0 Z M-10 28 C-12.34194796 33.43749305 -12.21710849 38.28895247 -11 44 C-9.2389807 47.72850586 -9.2389807 47.72850586 -6 50 C-0.5812072 50.61447301 -0.5812072 50.61447301 4.22265625 48.57421875 C6.90640741 44.68720333 6.62168533 41.11645538 6.5625 36.5 C6.58634766 35.64535156 6.61019531 34.79070312 6.63476562 33.91015625 C6.63403887 28.65475075 6.63403887 28.65475075 3.65234375 24.44140625 C-2.39192671 21.15667017 -5.99495091 22.65993454 -10 28 Z " fill="#292B34" transform="translate(1291,381)"/>
<path d="M0 0 C1.95792062 0.9824318 3.87244564 2.00398258 5.765625 3.10546875 C5.765625 2.11546875 5.765625 1.12546875 5.765625 0.10546875 C9.725625 0.10546875 13.685625 0.10546875 17.765625 0.10546875 C17.765625 1.75546875 17.765625 3.40546875 17.765625 5.10546875 C16.115625 5.43546875 14.465625 5.76546875 12.765625 6.10546875 C12.78133545 7.15935791 12.7970459 8.21324707 12.81323242 9.29907227 C12.86779756 13.2332384 12.90207112 17.16737149 12.93041992 21.10180664 C12.94544626 22.80010617 12.96587323 24.4983673 12.99194336 26.1965332 C13.02859949 28.64674393 13.04541289 31.09643875 13.05859375 33.546875 C13.07407761 34.29820206 13.08956146 35.04952911 13.10551453 35.82362366 C13.10743558 41.92961774 11.79770024 46.51282103 7.953125 51.41796875 C3.15603118 55.11858398 -2.30946327 55.8653552 -8.234375 55.10546875 C-11.01967474 54.28318743 -13.55628169 53.25322302 -16.234375 52.10546875 C-15.574375 50.12546875 -14.914375 48.14546875 -14.234375 46.10546875 C-13.34234375 46.21246094 -12.4503125 46.31945312 -11.53125 46.4296875 C-10.36078125 46.54957031 -9.1903125 46.66945313 -7.984375 46.79296875 C-6.24414062 46.98439453 -6.24414062 46.98439453 -4.46875 47.1796875 C-1.26433389 47.34633961 -1.26433389 47.34633961 1.140625 45.85546875 C3.58053389 43.22787456 3.50307308 40.58428165 3.765625 37.10546875 C3.12625 37.60046875 2.486875 38.09546875 1.828125 38.60546875 C-2.30253985 40.62865153 -5.71161289 40.81664512 -10.234375 40.10546875 C-15.10417184 37.71651181 -17.55350503 34.77216833 -20.234375 30.10546875 C-22.85146795 22.25418989 -21.84964338 13.57312946 -18.4453125 6.13671875 C-14.51469894 -0.45656852 -7.16170256 -2.86718512 0 0 Z M-10.109375 8.91796875 C-13.64626266 14.22330024 -13.79475526 18.89297725 -13.234375 25.10546875 C-11.89799875 28.50715375 -10.79958654 30.54025721 -8.234375 33.10546875 C-2.45277921 33.86024535 -2.45277921 33.86024535 2.48828125 31.109375 C5.49540416 27.14286125 5.51606854 24.44758948 5.390625 19.60546875 C5.40996094 18.85910156 5.42929688 18.11273438 5.44921875 17.34375 C5.41229015 13.17081798 5.0866644 11.51892859 2.4453125 8.1171875 C-0.16180131 5.85619993 -0.16180131 5.85619993 -3.734375 5.41796875 C-7.31999169 6.12228631 -7.87295718 6.33251462 -10.109375 8.91796875 Z " fill="#292C34" transform="translate(1423.234375,397.89453125)"/>
<path d="M0 0 C1.95792062 0.9824318 3.87244564 2.00398258 5.765625 3.10546875 C5.765625 2.11546875 5.765625 1.12546875 5.765625 0.10546875 C9.725625 0.10546875 13.685625 0.10546875 17.765625 0.10546875 C17.765625 1.75546875 17.765625 3.40546875 17.765625 5.10546875 C16.115625 5.43546875 14.465625 5.76546875 12.765625 6.10546875 C12.78133545 7.15935791 12.7970459 8.21324707 12.81323242 9.29907227 C12.86779756 13.2332384 12.90207112 17.16737149 12.93041992 21.10180664 C12.94544626 22.80010617 12.96587323 24.4983673 12.99194336 26.1965332 C13.02859949 28.64674393 13.04541289 31.09643875 13.05859375 33.546875 C13.07407761 34.29820206 13.08956146 35.04952911 13.10551453 35.82362366 C13.10743558 41.92961774 11.79770024 46.51282103 7.953125 51.41796875 C3.15603118 55.11858398 -2.30946327 55.8653552 -8.234375 55.10546875 C-11.01967474 54.28318743 -13.55628169 53.25322302 -16.234375 52.10546875 C-15.574375 50.12546875 -14.914375 48.14546875 -14.234375 46.10546875 C-13.34234375 46.21246094 -12.4503125 46.31945312 -11.53125 46.4296875 C-10.36078125 46.54957031 -9.1903125 46.66945313 -7.984375 46.79296875 C-6.24414062 46.98439453 -6.24414062 46.98439453 -4.46875 47.1796875 C-1.26433389 47.34633961 -1.26433389 47.34633961 1.140625 45.85546875 C3.58053389 43.22787456 3.50307308 40.58428165 3.765625 37.10546875 C3.12625 37.60046875 2.486875 38.09546875 1.828125 38.60546875 C-2.30253985 40.62865153 -5.71161289 40.81664512 -10.234375 40.10546875 C-15.10417184 37.71651181 -17.55350503 34.77216833 -20.234375 30.10546875 C-22.85146795 22.25418989 -21.84964338 13.57312946 -18.4453125 6.13671875 C-14.51469894 -0.45656852 -7.16170256 -2.86718512 0 0 Z M-10.109375 8.91796875 C-13.64626266 14.22330024 -13.79475526 18.89297725 -13.234375 25.10546875 C-11.89799875 28.50715375 -10.79958654 30.54025721 -8.234375 33.10546875 C-2.45277921 33.86024535 -2.45277921 33.86024535 2.48828125 31.109375 C5.49540416 27.14286125 5.51606854 24.44758948 5.390625 19.60546875 C5.40996094 18.85910156 5.42929687 18.11273438 5.44921875 17.34375 C5.41229015 13.17081798 5.0866644 11.51892859 2.4453125 8.1171875 C-0.16180131 5.85619993 -0.16180131 5.85619993 -3.734375 5.41796875 C-7.31999169 6.12228631 -7.87295718 6.33251462 -10.109375 8.91796875 Z " fill="#292B34" transform="translate(1001.234375,397.89453125)"/>
<path d="M0 0 C1.98 0 3.96 0 6 0 C6.31215868 3.98002315 6.36368076 6.3565648 4.375 9.875 C2 12 2 12 -4 13 C-4 20.92 -4 28.84 -4 37 C-2.68 37.33 -1.36 37.66 0 38 C0 39.65 0 41.3 0 43 C-1.79133978 43.05391993 -3.58313899 43.09275571 -5.375 43.125 C-6.37273437 43.14820313 -7.37046875 43.17140625 -8.3984375 43.1953125 C-11 43 -11 43 -13 41 C-13.639375 41.495 -14.27875 41.99 -14.9375 42.5 C-19.06161278 44.5199736 -22.4841269 44.59224565 -27 44 C-30.67248419 42.53100632 -33.00360942 40.40474345 -35.16870117 37.07763672 C-37.04467565 32.3890779 -36.39562562 27.0874729 -36.25 22.125 C-36.23195313 20.9596875 -36.21390625 19.794375 -36.1953125 18.59375 C-36.1483382 15.72831751 -36.08266293 12.86458832 -36 10 C-37.65 9.67 -39.3 9.34 -41 9 C-41 7.35 -41 5.7 -41 4 C-36.71 4 -32.42 4 -28 4 C-27.95101563 6.05863281 -27.90203125 8.11726563 -27.8515625 10.23828125 C-27.79593306 12.23398733 -27.74023623 14.22969217 -27.68261719 16.2253418 C-27.6443565 17.61131907 -27.60949844 18.99739465 -27.578125 20.38354492 C-27.53241301 22.3770164 -27.47341075 24.37016914 -27.4140625 26.36328125 C-27.3826416 27.56251221 -27.3512207 28.76174316 -27.31884766 29.99731445 C-27.21570506 33.17882706 -27.21570506 33.17882706 -25 36 C-19.61516265 36.68104461 -19.61516265 36.68104461 -14.7890625 34.67578125 C-11.9078417 30.36653181 -12.3207925 25.8213176 -12.25 20.75 C-12.20552734 19.203125 -12.20552734 19.203125 -12.16015625 17.625 C-12.08955222 15.08325505 -12.03680991 12.54242217 -12 10 C-14.475 9.505 -14.475 9.505 -17 9 C-17 7.35 -17 5.7 -17 4 C-12.71 4 -8.42 4 -4 4 C-3.505 5.485 -3.505 5.485 -3 7 C-2.01 4.69 -1.02 2.38 0 0 Z " fill="#292B34" transform="translate(1061,394)"/>
<path d="M0 0 C3.59805929 1.91545954 5.6732452 3.43035295 7.05859375 7.24609375 C7.28564453 10.08691406 7.28564453 10.08691406 7.25390625 13.32421875 C7.24746094 14.484375 7.24101563 15.64453125 7.234375 16.83984375 C7.21761719 18.04640625 7.20085938 19.25296875 7.18359375 20.49609375 C7.17457031 21.718125 7.16554688 22.94015625 7.15625 24.19921875 C7.13268888 27.21504157 7.09979081 30.23046867 7.05859375 33.24609375 C10.02859375 33.74109375 10.02859375 33.74109375 13.05859375 34.24609375 C13.05859375 35.89609375 13.05859375 37.54609375 13.05859375 39.24609375 C6.78859375 39.24609375 0.51859375 39.24609375 -5.94140625 39.24609375 C-5.94140625 37.59609375 -5.94140625 35.94609375 -5.94140625 34.24609375 C-3.46640625 33.75109375 -3.46640625 33.75109375 -0.94140625 33.24609375 C-1.02197886 29.28690698 -1.1348457 25.32929538 -1.25390625 21.37109375 C-1.27646484 20.24316406 -1.29902344 19.11523438 -1.32226562 17.953125 C-1.37543945 16.33857422 -1.37543945 16.33857422 -1.4296875 14.69140625 C-1.45587158 13.69641113 -1.48205566 12.70141602 -1.5090332 11.67626953 C-1.65171631 10.87431152 -1.79439941 10.07235352 -1.94140625 9.24609375 C-5.66198985 6.76570468 -7.53937196 6.78272172 -11.94140625 7.24609375 C-14.34037898 8.49605459 -14.34037898 8.49605459 -15.94140625 11.24609375 C-16.58295123 14.9883758 -16.63849061 18.70540984 -16.69140625 22.49609375 C-16.72105469 23.52734375 -16.75070312 24.55859375 -16.78125 25.62109375 C-16.85185403 28.1628387 -16.90459634 30.70367158 -16.94140625 33.24609375 C-14.96140625 33.57609375 -12.98140625 33.90609375 -10.94140625 34.24609375 C-10.94140625 35.89609375 -10.94140625 37.54609375 -10.94140625 39.24609375 C-17.54140625 39.24609375 -24.14140625 39.24609375 -30.94140625 39.24609375 C-30.94140625 37.59609375 -30.94140625 35.94609375 -30.94140625 34.24609375 C-27.97140625 33.75109375 -27.97140625 33.75109375 -24.94140625 33.24609375 C-24.94140625 24.33609375 -24.94140625 15.42609375 -24.94140625 6.24609375 C-27.91140625 5.75109375 -27.91140625 5.75109375 -30.94140625 5.24609375 C-30.94140625 3.59609375 -30.94140625 1.94609375 -30.94140625 0.24609375 C-26.32140625 0.24609375 -21.70140625 0.24609375 -16.94140625 0.24609375 C-16.61140625 1.23609375 -16.28140625 2.22609375 -15.94140625 3.24609375 C-15.34328125 2.77171875 -14.74515625 2.29734375 -14.12890625 1.80859375 C-9.87668711 -1.22870563 -4.93728558 -1.91729601 0 0 Z " fill="#282C34" transform="translate(962.94140625,397.75390625)"/>
<path d="M0 0 C3.59805929 1.91545954 5.6732452 3.43035295 7.05859375 7.24609375 C7.28564453 10.08691406 7.28564453 10.08691406 7.25390625 13.32421875 C7.24746094 14.484375 7.24101563 15.64453125 7.234375 16.83984375 C7.21761719 18.04640625 7.20085937 19.25296875 7.18359375 20.49609375 C7.17457031 21.718125 7.16554688 22.94015625 7.15625 24.19921875 C7.13268888 27.21504157 7.09979081 30.23046867 7.05859375 33.24609375 C10.02859375 33.74109375 10.02859375 33.74109375 13.05859375 34.24609375 C13.05859375 35.89609375 13.05859375 37.54609375 13.05859375 39.24609375 C6.78859375 39.24609375 0.51859375 39.24609375 -5.94140625 39.24609375 C-5.94140625 37.59609375 -5.94140625 35.94609375 -5.94140625 34.24609375 C-3.46640625 33.75109375 -3.46640625 33.75109375 -0.94140625 33.24609375 C-1.02197886 29.28690698 -1.1348457 25.32929538 -1.25390625 21.37109375 C-1.27646484 20.24316406 -1.29902344 19.11523438 -1.32226562 17.953125 C-1.37543945 16.33857422 -1.37543945 16.33857422 -1.4296875 14.69140625 C-1.45587158 13.69641113 -1.48205566 12.70141602 -1.5090332 11.67626953 C-1.65171631 10.87431152 -1.79439941 10.07235352 -1.94140625 9.24609375 C-5.4294472 6.92073312 -6.84281379 6.91151477 -10.94140625 7.24609375 C-14.14617249 8.45354319 -14.14617249 8.45354319 -15.94140625 11.24609375 C-16.09363598 12.91175124 -16.1905784 14.58265871 -16.2578125 16.25390625 C-16.29970703 17.24003906 -16.34160156 18.22617187 -16.38476562 19.2421875 C-16.42408203 20.27472656 -16.46339844 21.30726563 -16.50390625 22.37109375 C-16.54708984 23.41136719 -16.59027344 24.45164062 -16.63476562 25.5234375 C-16.74103505 28.09751903 -16.84307208 30.67169883 -16.94140625 33.24609375 C-14.96140625 33.57609375 -12.98140625 33.90609375 -10.94140625 34.24609375 C-10.94140625 35.89609375 -10.94140625 37.54609375 -10.94140625 39.24609375 C-17.21140625 39.24609375 -23.48140625 39.24609375 -29.94140625 39.24609375 C-29.94140625 37.59609375 -29.94140625 35.94609375 -29.94140625 34.24609375 C-27.46640625 33.75109375 -27.46640625 33.75109375 -24.94140625 33.24609375 C-24.94140625 24.33609375 -24.94140625 15.42609375 -24.94140625 6.24609375 C-26.59140625 5.91609375 -28.24140625 5.58609375 -29.94140625 5.24609375 C-29.94140625 3.59609375 -29.94140625 1.94609375 -29.94140625 0.24609375 C-25.65140625 0.24609375 -21.36140625 0.24609375 -16.94140625 0.24609375 C-16.61140625 1.23609375 -16.28140625 2.22609375 -15.94140625 3.24609375 C-15.34328125 2.77171875 -14.74515625 2.29734375 -14.12890625 1.80859375 C-9.87668711 -1.22870563 -4.93728558 -1.91729601 0 0 Z " fill="#292B33" transform="translate(1384.94140625,397.75390625)"/>
<path d="M0 0 C3.46906082 3.19666344 4.54659061 6.81187801 4.92504883 11.37670898 C4.98621223 14.5886683 4.95324035 17.78447946 4.87890625 20.99609375 C4.85860352 22.66575195 4.85860352 22.66575195 4.83789062 24.36914062 C4.80273622 27.09946587 4.75352731 29.82877119 4.69140625 32.55859375 C6.01140625 32.55859375 7.33140625 32.55859375 8.69140625 32.55859375 C8.69140625 34.20859375 8.69140625 35.85859375 8.69140625 37.55859375 C4.73140625 37.55859375 0.77140625 37.55859375 -3.30859375 37.55859375 C-3.63859375 36.56859375 -3.96859375 35.57859375 -4.30859375 34.55859375 C-5.11296875 35.21859375 -5.91734375 35.87859375 -6.74609375 36.55859375 C-10.76563406 39.2351123 -14.62391298 39.27731557 -19.30859375 38.55859375 C-22.97055236 36.96643783 -25.51064277 35.15449571 -27.30859375 31.55859375 C-27.97047726 27.74730846 -28.16094132 24.21769004 -26.359375 20.7109375 C-23.76023154 17.37386687 -21.28168907 15.76949499 -17.30859375 14.55859375 C-13.7578125 14.36328125 -13.7578125 14.36328125 -9.99609375 14.43359375 C-8.74183594 14.45164062 -7.48757813 14.4696875 -6.1953125 14.48828125 C-4.76638672 14.52308594 -4.76638672 14.52308594 -3.30859375 14.55859375 C-3.96859375 11.58859375 -4.62859375 8.61859375 -5.30859375 5.55859375 C-6.93350329 5.53161186 -8.55854008 5.51220618 -10.18359375 5.49609375 C-11.08851563 5.48449219 -11.9934375 5.47289062 -12.92578125 5.4609375 C-15.32545225 5.39610118 -15.32545225 5.39610118 -17.30859375 6.55859375 C-17.96414494 9.0859261 -17.96414494 9.0859261 -18.30859375 11.55859375 C-20.61859375 11.55859375 -22.92859375 11.55859375 -25.30859375 11.55859375 C-25.5938529 8.17985765 -25.74876327 4.92779253 -25.30859375 1.55859375 C-18.63966635 -4.5545897 -7.65885759 -3.59758446 0 0 Z M-17.67578125 22.41015625 C-19.51240123 24.46522255 -19.51240123 24.46522255 -19.68359375 27.18359375 C-19.51843626 29.74086571 -19.51843626 29.74086571 -17.30859375 31.55859375 C-12.2934141 32.03172391 -9.3626396 31.57017067 -5.30859375 28.55859375 C-2.95885557 26.66104231 -2.95885557 26.66104231 -3.18359375 23.43359375 C-3.22484375 22.48484375 -3.26609375 21.53609375 -3.30859375 20.55859375 C-5.22400513 20.45017424 -7.14119148 20.37281296 -9.05859375 20.30859375 C-10.1259375 20.2621875 -11.19328125 20.21578125 -12.29296875 20.16796875 C-15.40613451 20.31069713 -15.40613451 20.31069713 -17.67578125 22.41015625 Z " fill="#292B34" transform="translate(721.30859375,399.44140625)"/>
<path d="M0 0 C2.71773511 2.29962201 3.52922541 4.05453166 4.7265625 7.4609375 C5.08119864 11.76034427 5.00892418 16.0258121 4.9140625 20.3359375 C4.89375977 22.08390625 4.89375977 22.08390625 4.87304688 23.8671875 C4.83782071 26.73224868 4.78855965 29.59635127 4.7265625 32.4609375 C6.0465625 32.4609375 7.3665625 32.4609375 8.7265625 32.4609375 C8.7265625 34.1109375 8.7265625 35.7609375 8.7265625 37.4609375 C5.0965625 37.4609375 1.4665625 37.4609375 -2.2734375 37.4609375 C-2.6034375 36.4709375 -2.9334375 35.4809375 -3.2734375 34.4609375 C-4.2428125 35.1209375 -5.2121875 35.7809375 -6.2109375 36.4609375 C-10.53744593 38.92695954 -14.39161918 39.21339822 -19.2734375 38.4609375 C-23.45803051 36.73251865 -25.48062489 34.61271407 -27.2734375 30.4609375 C-27.80626988 26.27439738 -27.54527899 24.02636779 -25.7109375 20.2109375 C-22.83709268 16.96865104 -20.47473745 15.30263629 -16.2734375 14.4609375 C-11.9269691 14.23244325 -7.62098236 14.28442064 -3.2734375 14.4609375 C-3.55494837 13.14622182 -3.84897089 11.83417983 -4.1484375 10.5234375 C-4.31085938 9.79253906 -4.47328125 9.06164062 -4.640625 8.30859375 C-5.10305273 6.25393456 -5.10305273 6.25393456 -7.2734375 5.4609375 C-9.18844053 5.30194896 -9.18844053 5.30194896 -11.2734375 5.3359375 C-11.9746875 5.33335937 -12.6759375 5.33078125 -13.3984375 5.328125 C-15.36497525 5.34716514 -15.36497525 5.34716514 -17.2734375 6.4609375 C-17.92898869 8.98826985 -17.92898869 8.98826985 -18.2734375 11.4609375 C-20.5834375 11.4609375 -22.8934375 11.4609375 -25.2734375 11.4609375 C-25.2734375 8.1609375 -25.2734375 4.8609375 -25.2734375 1.4609375 C-16.61376497 -3.0657095 -9.02133705 -4.34360673 0 0 Z M-17.5234375 22.6484375 C-19.5281825 25.29824813 -19.5281825 25.29824813 -19.2109375 28.2109375 C-18.49346086 30.62326743 -18.49346086 30.62326743 -16.2734375 31.4609375 C-11.28123465 31.83770753 -8.29323607 31.53490111 -4.2734375 28.4609375 C-2.91904082 25.75214415 -3.20842299 23.45160482 -3.2734375 20.4609375 C-10.7983833 19.76807415 -10.7983833 19.76807415 -17.5234375 22.6484375 Z " fill="#292C34" transform="translate(1200.2734375,399.5390625)"/>
<path d="M0 0 C4.06376418 2.19443266 5.66562998 3.30938993 7.125 7.6875 C7.20791953 9.6795303 7.23238177 11.67423713 7.22265625 13.66796875 C7.21943359 14.83134766 7.21621094 15.99472656 7.21289062 17.19335938 C7.20032227 19.01577148 7.20032227 19.01577148 7.1875 20.875 C7.18298828 22.10154297 7.17847656 23.32808594 7.17382812 24.59179688 C7.16203065 27.62374668 7.14556921 30.65559906 7.125 33.6875 C8.445 33.6875 9.765 33.6875 11.125 33.6875 C11.125 35.3375 11.125 36.9875 11.125 38.6875 C9.33366022 38.74141993 7.54186101 38.78025571 5.75 38.8125 C4.75226562 38.83570313 3.75453125 38.85890625 2.7265625 38.8828125 C0.125 38.6875 0.125 38.6875 -1.875 36.6875 C-2.679375 37.1825 -3.48375 37.6775 -4.3125 38.1875 C-8.70155147 40.03552167 -12.1789476 40.44357284 -16.875 39.6875 C-20.33978519 37.98660545 -22.23868391 36.68347301 -24.3125 33.4375 C-25.09034498 29.63470232 -25.04206545 26.40705054 -23.875 22.6875 C-20.94923993 18.9490288 -18.35455932 17.11079261 -13.875 15.6875 C-10.54296875 15.4921875 -10.54296875 15.4921875 -7.0625 15.5625 C-5.32033203 15.58957031 -5.32033203 15.58957031 -3.54296875 15.6171875 C-2.66253906 15.64039063 -1.78210938 15.66359375 -0.875 15.6875 C-1.15651087 14.37278432 -1.45053339 13.06074233 -1.75 11.75 C-1.91242187 11.01910156 -2.07484375 10.28820312 -2.2421875 9.53515625 C-2.70461523 7.48049706 -2.70461523 7.48049706 -4.875 6.6875 C-6.58202735 6.61753986 -8.29168003 6.60309846 -10 6.625 C-10.91007813 6.63402344 -11.82015625 6.64304687 -12.7578125 6.65234375 C-13.80582031 6.66974609 -13.80582031 6.66974609 -14.875 6.6875 C-15.205 8.6675 -15.535 10.6475 -15.875 12.6875 C-18.185 12.6875 -20.495 12.6875 -22.875 12.6875 C-22.875 9.3875 -22.875 6.0875 -22.875 2.6875 C-15.01877928 -0.85333187 -8.34837684 -3.29034559 0 0 Z M-15.125 23.9375 C-17.08633131 26.45216518 -17.08633131 26.45216518 -16.8125 28.875 C-15.89891338 30.86572239 -15.89891338 30.86572239 -13.875 32.6875 C-9.70393705 33.16877649 -7.27838726 32.87085784 -3.4375 31.125 C-0.47854405 28.84110745 -0.47854405 28.84110745 -0.5 24.9375 C-0.62375 23.865 -0.7475 22.7925 -0.875 21.6875 C-8.42073366 20.98217972 -8.42073366 20.98217972 -15.125 23.9375 Z " fill="#292B34" transform="translate(898.875,398.3125)"/>
<path d="M0 0 C4.29 0 8.58 0 13 0 C13.04898438 2.14242188 13.09796875 4.28484375 13.1484375 6.4921875 C13.20242706 8.56403673 13.25974232 10.63576904 13.31738281 12.70751953 C13.35569674 14.1488374 13.39054543 15.59025168 13.421875 17.03173828 C13.46747446 19.10223886 13.52547444 21.17207433 13.5859375 23.2421875 C13.6173584 24.4885498 13.6487793 25.73491211 13.68115234 27.01904297 C13.69682309 30.11541776 13.69682309 30.11541776 16 32 C21.38066397 32.63451278 21.38066397 32.63451278 26.2109375 30.6796875 C29.09024716 26.36700972 28.67917823 21.82341404 28.75 16.75 C28.79447266 15.203125 28.79447266 15.203125 28.83984375 13.625 C28.91044778 11.08325505 28.96319009 8.54242217 29 6 C26.525 5.505 26.525 5.505 24 5 C24 3.35 24 1.7 24 0 C28.29 0 32.58 0 37 0 C37 10.89 37 21.78 37 33 C38.32 33.33 39.64 33.66 41 34 C41 35.65 41 37.3 41 39 C39.20866022 39.05391993 37.41686101 39.09275571 35.625 39.125 C34.62726562 39.14820313 33.62953125 39.17140625 32.6015625 39.1953125 C30 39 30 39 28 37 C27.360625 37.495 26.72125 37.99 26.0625 38.5 C21.95088619 40.51385166 18.50450653 40.61425089 14 40 C10.76699914 38.52406483 8.27839213 36.73407055 6 34 C4.9407082 30.82212459 4.88541061 28.57411057 4.90234375 25.23828125 C4.90556641 24.12001953 4.90878906 23.00175781 4.91210938 21.84960938 C4.92048828 20.68236328 4.92886719 19.51511719 4.9375 18.3125 C4.94201172 17.13365234 4.94652344 15.95480469 4.95117188 14.74023438 C4.96296727 11.82677211 4.9794273 8.91341137 5 6 C3.35 5.67 1.7 5.34 0 5 C0 3.35 0 1.7 0 0 Z " fill="#292B34" transform="translate(829,398)"/>
<path d="M0 0 C4.69638254 2.63365766 7.05650522 5.50941357 9 10.5625 C10.50847563 18.10487817 10.47918037 25.38687932 6.75 32.3125 C3.28294575 36.22215692 -0.16213406 39.03613334 -5.51953125 39.515625 C-10.86692994 39.61419456 -14.71861245 39.47393318 -19.25 36.3125 C-24.63428387 31.05058622 -25.89306292 26.23880792 -26.5625 18.875 C-25.98346811 12.27403644 -24.17644193 5.96525071 -19.25 1.3125 C-12.7082013 -2.33581082 -6.7811773 -3.09493435 0 0 Z M-16.34375 9.41015625 C-18.67354744 14.30072243 -18.63346945 19.39672185 -17.5625 24.625 C-16.24049935 28.33919229 -15.42844792 30.04218006 -12.25 32.3125 C-8.98149219 33.60270045 -7.5109061 33.39077183 -4.125 32.375 C-0.24082938 29.58852977 0.7343251 26.891501 1.75 22.3125 C2.40522239 16.08788728 0.80430428 11.66425961 -2.4375 6.375 C-7.7250363 3.27540976 -12.92361573 4.4994905 -16.34375 9.41015625 Z " fill="#292B34" transform="translate(1239.25,398.6875)"/>
<path d="M0 0 C4.52813825 3.2099469 5.95627754 7.28257319 7.1328125 12.49609375 C8.21139313 19.57427911 7.31063787 25.39924724 3.8828125 31.68359375 C1.06715836 35.07894138 -1.05974531 36.85194635 -5.2421875 38.24609375 C-11.21108031 38.78031479 -16.17812448 38.77916097 -21.2421875 35.24609375 C-26.5395293 29.82835782 -28.30773141 25.33122564 -28.5546875 17.87109375 C-28.40949366 11.92621267 -27.71262734 6.97909242 -23.625 2.45703125 C-16.62765212 -3.87962284 -8.27147485 -4.68716908 0 0 Z M-17.1171875 7.05859375 C-20.47767825 12.09932987 -20.90874952 16.34225868 -20.2421875 22.24609375 C-19.37548987 25.31608293 -18.28633148 27.78355773 -16.2421875 30.24609375 C-12.90543736 32.14047742 -12.90543736 32.14047742 -9.2421875 32.24609375 C-5.02351077 30.61615047 -3.09309351 28.31808697 -1.2421875 24.24609375 C0.08098756 18.8516108 -0.09971265 14.34113345 -2.2421875 9.24609375 C-4.91459459 5.58107832 -6.27631328 4.43581904 -10.7421875 3.55859375 C-14.32780419 4.26291131 -14.88076968 4.47313962 -17.1171875 7.05859375 Z " fill="#282B34" transform="translate(762.2421875,399.75390625)"/>
<path d="M0 0 C4.24483912 3.89763592 6.65972173 8.26702819 7.37109375 13.98046875 C7.52965949 21.63826123 6.87003461 27.84153391 2 34 C-2.33230882 37.62595412 -7.19354389 38.67131897 -12.76171875 38.3828125 C-18.2904625 37.43723329 -21.95621417 35.31142322 -25.4375 30.9375 C-27.89065944 26.32556026 -28.18843271 22.87454382 -28.25 17.6875 C-28.27578125 16.39199219 -28.3015625 15.09648437 -28.328125 13.76171875 C-27.90741556 8.9385855 -26.56342175 5.73028347 -23.31640625 2.13671875 C-22.73761719 1.65847656 -22.15882812 1.18023437 -21.5625 0.6875 C-20.98628906 0.19636719 -20.41007812 -0.29476563 -19.81640625 -0.80078125 C-13.62881338 -4.88592321 -6.12456894 -3.4025383 0 0 Z M-16.875 6.375 C-21.18942116 11.70457908 -20.58938977 17.35523586 -20 24 C-18.80241537 27.36937023 -16.9442755 29.2994085 -14.0625 31.4375 C-11.22978264 32.21005928 -9.76919302 32.0131194 -7 31 C-3.25076462 27.76202399 -1.2498467 25.57219221 -0.76171875 20.546875 C-0.5900101 14.07616992 -1.12230323 10.24629563 -5 5 C-9.48642468 2.75678766 -13.09044159 3.24862566 -16.875 6.375 Z " fill="#292B34" transform="translate(1343,400)"/>
<path d="M0 0 C4.25337757 3.90547597 6.69651605 8.27570223 7.3359375 14.015625 C7.42090831 21.0512077 7.16539988 27.10220139 3 33 C-2.01415788 37.09319011 -6.2513806 38.37019556 -12.5859375 38.27734375 C-18.20852613 37.63138292 -21.95098307 35.31799562 -25.4375 30.9375 C-29.03141097 24.18094737 -28.97565279 16.19154694 -27.57421875 8.734375 C-25.84586681 4.02647155 -22.13909169 0.65257919 -18 -2 C-11.52968013 -4.08153701 -5.90498963 -3.2805498 0 0 Z M-16.875 6.3125 C-21.02812412 11.5649805 -20.62054787 17.56500358 -20 24 C-18.78797013 27.29697245 -16.92252977 29.29272718 -14.125 31.4375 C-11.02084524 32.25918802 -9.0609927 31.95656022 -6 31 C-1.10658946 25.97433512 -0.66231287 21.54821966 -0.70703125 14.8046875 C-1.14302209 10.63080182 -2.51966958 8.35574115 -5 5 C-9.45716337 2.77141831 -13.07411023 3.25526258 -16.875 6.3125 Z " fill="#292B34" transform="translate(1097,400)"/>
<path d="M0 0 C2.58926331 2.58926331 2.37398043 4.02705279 2.625 7.625 C2.69976563 8.62789063 2.77453125 9.63078125 2.8515625 10.6640625 C2.90054688 11.43492187 2.94953125 12.20578125 3 13 C0.69 13 -1.62 13 -4 13 C-4.28875 11.865625 -4.5775 10.73125 -4.875 9.5625 C-5.24625 8.386875 -5.6175 7.21125 -6 6 C-9.13871188 4.43064406 -11.53855822 4.64798897 -15 5 C-18.15954305 7.54137159 -19.71540886 9.14622659 -21 13 C-21.60227125 18.97638392 -21.24281947 23.87425309 -18 29 C-14.69873108 30.82425515 -14.69873108 30.82425515 -11 31 C-7.82853457 29.73141383 -6.44283536 28.73805894 -4.6875 25.8125 C-4.460625 25.214375 -4.23375 24.61625 -4 24 C-1.69 24 0.62 24 3 24 C3.49405138 28.1500316 3.18902785 29.71915862 0.8125 33.25 C-3.35655988 37.32641411 -6.23134567 38.09894632 -11.9375 38.3125 C-18.05039043 38.1583173 -21.43927386 36.59619718 -25.75 32.1875 C-30.28927419 25.75686157 -30.6774631 19.68155739 -30 12 C-28.9006195 6.17328337 -26.35132216 2.8522041 -21.81640625 -0.87109375 C-14.87259793 -5.18670795 -6.90966243 -3.09743488 0 0 Z " fill="#292B34" transform="translate(822,400)"/>
<path d="M0 0 C4.62 0 9.24 0 14 0 C14 16.5 14 33 14 50 C15.98 50.33 17.96 50.66 20 51 C20 52.65 20 54.3 20 56 C13.4 56 6.8 56 0 56 C0 54.35 0 52.7 0 51 C2.97 50.505 2.97 50.505 6 50 C6 35.48 6 20.96 6 6 C4.35 6 2.7 6 1 6 C0.67 5.67 0.34 5.34 0 5 C0 3.35 0 1.7 0 0 Z " fill="#292B34" transform="translate(1149,381)"/>
<path d="M0 0 C4.62 0 9.24 0 14 0 C14 10.89 14 21.78 14 33 C15.98 33.33 17.96 33.66 20 34 C20 35.65 20 37.3 20 39 C13.4 39 6.8 39 0 39 C0 37.35 0 35.7 0 34 C2.97 33.505 2.97 33.505 6 33 C6 24.09 6 15.18 6 6 C4.35 6 2.7 6 1 6 C0.67 5.67 0.34 5.34 0 5 C0 3.35 0 1.7 0 0 Z " fill="#292B34" transform="translate(1108,398)"/>
<path d="M0 0 C5.29949466 1.27918837 8.33657976 4.62140707 11.625 8.875 C11.625 9.535 11.625 10.195 11.625 10.875 C4.11730769 11.24423077 4.11730769 11.24423077 1.625 9.375 C1.295 8.88 0.965 8.385 0.625 7.875 C-2.0655528 9.09507944 -2.0655528 9.09507944 -4.375 10.875 C-6.70797433 10.91592937 -9.04205225 10.91741723 -11.375 10.875 C-9.29506431 5.46716721 -5.60106323 1.4521275 0 0 Z " fill="#272C35" transform="translate(1332.375,380.125)"/>
<path d="M0 0 C4.04146606 -0.31697773 6.37764693 -0.35752198 9.9375 1.6875 C12 4 12 4 12.5 6.5625 C11.9222676 9.37894546 11.33768113 10.35496513 9 12 C8.01 12 7.02 12 6 12 C6 12.99 6 13.98 6 15 C4.02 15 2.04 15 0 15 C0 12.69 0 10.38 0 8 C1.65 8 3.3 8 5 8 C5 7.01 5 6.02 5 5 C3.35 4.67 1.7 4.34 0 4 C0 2.68 0 1.36 0 0 Z " fill="#282B34" transform="translate(845,378)"/>
<path d="M0 0 C3.48002211 -0.55707864 6.54482134 -0.78152851 10 0 C12.69382859 2.65173751 14.41163963 5.58437953 16 9 C16 9.33 16 9.66 16 10 C13.14121939 10.54742608 11.75937874 10.75982893 9 10 C5.63820732 7.31907672 2.75151656 4.30057201 0 1 C0 0.67 0 0.34 0 0 Z " fill="#2A2B34" transform="translate(1029,381)"/>
<path d="M0 0 C1.37478516 0.01740234 1.37478516 0.01740234 2.77734375 0.03515625 C3.69644531 0.04417969 4.61554687 0.05320312 5.5625 0.0625 C6.27277344 0.07410156 6.98304688 0.08570313 7.71484375 0.09765625 C6.77893871 1.20317515 5.84104517 2.30701078 4.90234375 3.41015625 C4.11923828 4.33248047 4.11923828 4.33248047 3.3203125 5.2734375 C2.79050781 5.87542969 2.26070312 6.47742188 1.71484375 7.09765625 C1.23015625 7.66484375 0.74546875 8.23203125 0.24609375 8.81640625 C-2.31402891 10.9585497 -5.09829322 10.27804472 -8.28515625 10.09765625 C-7.47472789 8.61735353 -6.66175277 7.13844483 -5.84765625 5.66015625 C-5.16896484 4.42458984 -5.16896484 4.42458984 -4.4765625 3.1640625 C-2.71929354 0.11620913 -2.71929354 0.11620913 0 0 Z " fill="#292B34" transform="translate(714.28515625,380.90234375)"/>
<path d="M0 0 C2.97 0 5.94 0 9 0 C9 2.64 9 5.28 9 8 C6.03 8 3.06 8 0 8 C0 5.36 0 2.72 0 0 Z " fill="#2A2C34" transform="translate(1328,443)"/>
<path d="M0 0 C2.64 0 5.28 0 8 0 C8 2.64 8 5.28 8 8 C5.36 8 2.72 8 0 8 C0 5.36 0 2.72 0 0 Z " fill="#292B34" transform="translate(1114,381)"/>
</svg>
